<svg width="24" height="24" viewBox="0 0 24 24" fill="none" xmlns="http://www.w3.org/2000/svg">
<g clip-path="url(#clip0_3_15)">
<path d="M12 1.5C5.37187 1.5 -1.78348e-06 5.86406 -1.78348e-06 11.25C-1.78348e-06 13.4812 0.932811 15.525 2.47969 17.1703C1.78125 19.0172 0.328123 20.5828 0.304686 20.6016C-0.00468928 20.9297 -0.0890643 21.4078 0.0890607 21.8203C0.267186 22.2328 0.674998 22.5 1.125 22.5C4.00781 22.5 6.28125 21.2953 7.64531 20.3297C9 20.7563 10.4625 21 12 21C18.6281 21 24 16.6359 24 11.25C24 5.86406 18.6281 1.5 12 1.5ZM12 18.75C10.7484 18.75 9.51094 18.5578 8.325 18.1828L7.26094 17.8453L6.34687 18.4922C5.67656 18.9656 4.75781 19.4953 3.65156 19.8516C3.99375 19.2844 4.32656 18.6469 4.58437 17.9672L5.08125 16.65L4.11562 15.6281C3.26719 14.7234 2.25 13.2281 2.25 11.25C2.25 7.11563 6.62344 3.75 12 3.75C17.3766 3.75 21.75 7.11563 21.75 11.25C21.75 15.3844 17.3766 18.75 12 18.75Z" fill="#262626"/>
</g>
<defs>
<clipPath id="clip0_3_15">
<rect width="24" height="24" fill="white"/>
</clipPath>
</defs>
</svg>
