<svg width="24" height="24" viewBox="0 0 24 24" fill="none" xmlns="http://www.w3.org/2000/svg">
<g clip-path="url(#clip0_3_11)">
<path d="M21.4875 3.01405C18.7781 0.735927 14.5922 1.07811 12 3.71718C9.40782 1.07811 5.22188 0.73124 2.51251 3.01405C-1.01249 5.98124 -0.49687 10.8187 2.01563 13.3828L10.2375 21.7594C10.7063 22.2375 11.3344 22.5047 12 22.5047C12.6703 22.5047 13.2938 22.2422 13.7625 21.7641L21.9844 13.3875C24.4922 10.8234 25.0172 5.98593 21.4875 3.01405ZM20.3813 11.8031L12.1594 20.1797C12.0469 20.2922 11.9531 20.2922 11.8406 20.1797L3.61876 11.8031C1.90782 10.0594 1.56094 6.75936 3.96094 4.73905C5.78438 3.20624 8.59688 3.43593 10.3594 5.23124L12 6.90468L13.6406 5.23124C15.4125 3.42655 18.225 3.20624 20.0391 4.73436C22.4344 6.75468 22.0781 10.0734 20.3813 11.8031Z" fill="#262626"/>
</g>
<defs>
<clipPath id="clip0_3_11">
<rect width="24" height="24" fill="white"/>
</clipPath>
</defs>
</svg>
